<svg id="Calque_1" data-name="Calque 1" xmlns="http://www.w3.org/2000/svg" viewBox="0 0 595.28 841.89"><defs><style>.cls-1{fill:#16244e;}.cls-2{fill:#dba527;}.cls-3{fill:#fff;}</style></defs><title>logo_jotbis</title><path class="cls-1" d="M88,477.54a14.84,14.84,0,0,1-6.33,6.7,24.22,24.22,0,0,1-8.22,2.39,82.58,82.58,0,0,1-12.91.57v18.42H41.2V446.51H68.82a23.32,23.32,0,0,1,14.64,4.68,18.44,18.44,0,0,1,4.93,6.54,21.32,21.32,0,0,1,1.73,8.84A25.08,25.08,0,0,1,88,477.54ZM69.19,463.4A3.35,3.35,0,0,0,66.44,462H60.27v10h3.95c4.06,0,6.08-1.78,6.08-5.34A5.2,5.2,0,0,0,69.19,463.4Z"/><path class="cls-1" d="M125.79,505.7l-12.41-16.94V505.7H93.9V446.51h25.4a34.92,34.92,0,0,1,9.13,1.15,21.55,21.55,0,0,1,7.48,3.58A17.52,17.52,0,0,1,141,457.4a19.4,19.4,0,0,1,1.89,8.84,15.43,15.43,0,0,1-3.08,9.54,19.35,19.35,0,0,1-9.16,6.33l20.06,23.59ZM120,462.5a8.78,8.78,0,0,0-4.69-1.11h-1.89v10h1.89a9.21,9.21,0,0,0,4.69-1.19,4.43,4.43,0,0,0,2.14-4A4,4,0,0,0,120,462.5Z"/><path class="cls-1" d="M222.43,489.71a30.4,30.4,0,0,1-8.26,10.15A35.11,35.11,0,0,1,202.29,506a38.86,38.86,0,0,1-13.93,1.52,46.43,46.43,0,0,1-14.1-1.69,36.14,36.14,0,0,1-12.29-6,30,30,0,0,1-8.55-10,25.89,25.89,0,0,1-2.8-13.81,27.79,27.79,0,0,1,3-13.73,31.17,31.17,0,0,1,8.51-10.19A35.69,35.69,0,0,1,174.34,446a40.2,40.2,0,0,1,14-1.48,42.46,42.46,0,0,1,13.93,1.8,37,37,0,0,1,12,6.13,29.77,29.77,0,0,1,8.35,10.07,26.89,26.89,0,0,1,2.75,13.65A28.5,28.5,0,0,1,222.43,489.71ZM203.52,470.1a14.2,14.2,0,0,0-3.61-4.6,16.52,16.52,0,0,0-5.26-2.92,19.47,19.47,0,0,0-6.29-1,25.5,25.5,0,0,0-6.29.78,16,16,0,0,0-5.51,2.55,13.37,13.37,0,0,0-3.91,4.52,14.08,14.08,0,0,0-1.48,6.7,12.83,12.83,0,0,0,1.48,6.29,14.43,14.43,0,0,0,3.91,4.53,16.77,16.77,0,0,0,5.51,2.75,22.3,22.3,0,0,0,6.29.9,23.29,23.29,0,0,0,6.2-.82,15.3,15.3,0,0,0,5.27-2.55,12.84,12.84,0,0,0,3.65-4.48,14.35,14.35,0,0,0,1.4-6.62A13.16,13.16,0,0,0,203.52,470.1Z"/><path class="cls-1" d="M274.43,505.7l-25.81-30.5v30.5H229.13V446.51h18.75l25.48,30.42V446.51h19V505.7Z"/><path class="cls-1" d="M367.86,489.71a30.4,30.4,0,0,1-8.26,10.15A35.11,35.11,0,0,1,347.72,506a38.86,38.86,0,0,1-13.93,1.52,46.43,46.43,0,0,1-14.1-1.69,36.05,36.05,0,0,1-12.29-6,30,30,0,0,1-8.55-10,25.89,25.89,0,0,1-2.8-13.81,27.79,27.79,0,0,1,3-13.73,31.17,31.17,0,0,1,8.51-10.19A35.69,35.69,0,0,1,319.77,446a40.18,40.18,0,0,1,14-1.48,42.5,42.5,0,0,1,13.93,1.8,37,37,0,0,1,12,6.13,29.77,29.77,0,0,1,8.35,10.07,26.89,26.89,0,0,1,2.75,13.65A28.5,28.5,0,0,1,367.86,489.71ZM349,470.1a14.2,14.2,0,0,0-3.61-4.6,16.52,16.52,0,0,0-5.26-2.92,19.47,19.47,0,0,0-6.29-1,25.5,25.5,0,0,0-6.29.78,16,16,0,0,0-5.51,2.55,13.37,13.37,0,0,0-3.91,4.52,14.08,14.08,0,0,0-1.48,6.7,12.83,12.83,0,0,0,1.48,6.29,14.43,14.43,0,0,0,3.91,4.53,16.77,16.77,0,0,0,5.51,2.75,22.3,22.3,0,0,0,6.29.9,23.29,23.29,0,0,0,6.2-.82,15.16,15.16,0,0,0,5.26-2.55,12.76,12.76,0,0,0,3.66-4.48,14.48,14.48,0,0,0,1.4-6.62A13.16,13.16,0,0,0,349,470.1Z"/><path class="cls-1" d="M427.26,487.94a20.78,20.78,0,0,1-1.4,7.61,15.16,15.16,0,0,1-4.56,6.2A23.55,23.55,0,0,1,413,506a43.54,43.54,0,0,1-12.58,1.56,67.31,67.31,0,0,1-16.36-1.89,34.6,34.6,0,0,1-12.74-5.84l9.78-15.37a17.39,17.39,0,0,0,4.89,2.83,45.33,45.33,0,0,0,5.63,1.81,41.63,41.63,0,0,0,5.18,1,33.5,33.5,0,0,0,3.62.29,8.77,8.77,0,0,0,2.67-.41,1.79,1.79,0,0,0,1.19-2.06A2.36,2.36,0,0,0,403,486a9.55,9.55,0,0,0-2.55-1.07q-5-1.23-9.7-2.88a32.51,32.51,0,0,1-8.26-4.19,20.45,20.45,0,0,1-5.76-6.16,16.65,16.65,0,0,1-2.18-8.72,17.42,17.42,0,0,1,1.48-7.11,15.9,15.9,0,0,1,4.61-5.88,23.15,23.15,0,0,1,8-4,41.36,41.36,0,0,1,11.8-1.48,59.14,59.14,0,0,1,12.5,1.36A57.52,57.52,0,0,1,425.29,450L416,465a30.49,30.49,0,0,0-4-2.06,38.43,38.43,0,0,0-4.28-1.52,31,31,0,0,0-4.07-.9,21.51,21.51,0,0,0-3.24-.29c-3.46,0-5.18.9-5.18,2.71a2.41,2.41,0,0,0,.12.82,1.51,1.51,0,0,0,.62.66,6.33,6.33,0,0,0,1.56.66c.71.22,1.7.49,3,.82q5.1,1.39,9.82,2.88a35.41,35.41,0,0,1,8.43,3.82,19.08,19.08,0,0,1,6,6,18,18,0,0,1,2.47,9.29Z"/><path class="cls-1" d="M462.53,461.64v44.14h-19.4V461.64h-13V446.51h45.29v15.13Z"/><path class="cls-1" d="M479.13,505.7V446.51h19.49V505.7Z"/><path class="cls-1" d="M550.66,504.38a34.9,34.9,0,0,1-15.46,3.21A37.11,37.11,0,0,1,512.1,500q-11.27-8.88-11.26-23.84,0-14.81,11.34-23.84A37.59,37.59,0,0,1,550.57,448v21.29a16.1,16.1,0,0,0-3.41-3.74,13,13,0,0,0-3.7-2,16.4,16.4,0,0,0-4-.83c-1.37-.11-2.8-.16-4.28-.16a14.72,14.72,0,0,0-9.62,3.45,12.67,12.67,0,0,0-4.6,10.2,13.09,13.09,0,0,0,4.52,10.35,14.17,14.17,0,0,0,9.7,3.46c1.32,0,2.63,0,3.95-.08a19.24,19.24,0,0,0,3.9-.58,13.6,13.6,0,0,0,3.78-1.64,16.44,16.44,0,0,0,3.74-3.37v20.05Z"/><path class="cls-2" d="M275.79,586.15V666.5a250.27,250.27,0,0,0,22,12.57,247.4,247.4,0,0,0,22-12.57V586.18q-11.1-.49-22.3-.5C290.19,585.68,283,585.84,275.79,586.15Z"/><path class="cls-2" d="M231.87,631.27V590c-10.77,1.43-21.3,3.21-31.48,5.34A325.12,325.12,0,0,0,231.87,631.27Z"/><path class="cls-2" d="M395,595.45c-10.14-2.14-20.64-3.93-31.38-5.38v41.21A326.78,326.78,0,0,0,395,595.45Z"/><path class="cls-1" d="M297.75,385.5A86.5,86.5,0,1,0,211.26,299,86.59,86.59,0,0,0,297.75,385.5ZM378.66,299a80.41,80.41,0,0,1-15,46.87H343.19a14.89,14.89,0,0,1-12-6l-8-10.83a14.86,14.86,0,0,1-2.2-13.46l5.46-16.81a14.89,14.89,0,0,1,9-9.36l12.5-4.64a14.89,14.89,0,0,1,13.93,1.92l16.76,12.18C378.65,298.9,378.66,299,378.66,299Zm-78.11-52.89a14.88,14.88,0,0,1,6.14-12.05l16.37-11.89A81.2,81.2,0,0,1,362.85,251l-6,18.42a14.91,14.91,0,0,1-9,9.37l-13.34,4.94a14.87,14.87,0,0,1-13.92-1.92l-13.92-10.11a14.91,14.91,0,0,1-6.14-12.05Zm6.08,80.05a14.9,14.9,0,0,1,12,6l7.95,10.74a14.87,14.87,0,0,1,2.2,13.46l-6.39,19.67a80.78,80.78,0,0,1-49,.07L267,356.53a14.85,14.85,0,0,1,2.12-13.36L277,332.3a14.91,14.91,0,0,1,12-6.13Zm-34.18-104,16.37,11.89A14.88,14.88,0,0,1,295,246.12v13.56a14.89,14.89,0,0,1-6.14,12.05L274.69,282a14.9,14.9,0,0,1-13.83,2l-12.62-4.57a14.91,14.91,0,0,1-9.09-9.41l-6.26-19.26A81.17,81.17,0,0,1,272.45,222.18Zm-55.59,77.26,17-12.36a14.9,14.9,0,0,1,13.83-2L260,289.59a14.93,14.93,0,0,1,9.1,9.4l5.43,16.74a14.88,14.88,0,0,1-2.12,13.37l-7.65,10.5a14.89,14.89,0,0,1-12,6.13h-21A80.44,80.44,0,0,1,216.86,299.44Z"/><path class="cls-1" d="M465.23,519c-6.48,14.52-13.83,29.3-22.16,44-37.91,66.66-86.35,113.88-144,140.34l-1.34.61-1.33-.61c-57.63-26.46-106.07-73.68-144-140.34-8.34-14.66-15.68-29.44-22.17-44h-7a516.79,516.79,0,0,0,23.6,47.13c38.59,67.85,88,116,146.88,143l4,1.85,4-1.85c58.88-27,108.29-75.14,146.88-143A516.93,516.93,0,0,0,472.25,519Z"/><path class="cls-1" d="M390.65,299.41q19.85,3.16,39.43,7.69l2.48.58v40.59l36,8.56-.74,3.12a39.68,39.68,0,0,0,30.93,48.13l3.27.65-.77,3.24c-1.41,5.91-3,12.28-4.86,19h6.64c1.66-6.18,3.15-12,4.45-17.52l2.33-9.74L500,401.79a33.26,33.26,0,0,1-25.92-40.36l2.21-9.35L439,343.2V302.58l-7.44-1.72q-20.4-4.73-41.1-8c.13,2,.23,4.07.23,6.14C390.66,299.14,390.65,299.27,390.65,299.41Z"/><path class="cls-1" d="M92.45,431h6.64c-1.84-6.73-3.45-13.1-4.86-19l-.78-3.24,3.28-.65a39.76,39.76,0,0,0,32-38.94,40.28,40.28,0,0,0-1.08-9.19l-.74-3.12,36-8.56V307.68l2.48-.58q19.58-4.52,39.44-7.69c0-.14,0-.27,0-.4,0-2.07.09-4.11.22-6.14q-20.67,3.27-41.09,8l-7.45,1.72V343.2l-37.33,8.88,2.22,9.35a33.26,33.26,0,0,1-25.93,40.36l-9.82,1.93L88,413.46C89.3,418.94,90.79,424.8,92.45,431Z"/><path class="cls-1" d="M133.79,519c31,69,81.91,143.72,164,181.39,82.05-37.67,133-112.42,164-181.39Zm164,167.2c-41.32-20.17-77.63-52-108.34-95,32.31-7.62,69-11.93,108-11.93,39.2,0,76.13,4.36,108.59,12.07C375.3,634.25,339,666.07,297.75,686.22Z"/><path class="cls-1" d="M463.57,369.14a43.32,43.32,0,0,1,1.16-9.93l-35.37-8.41V310.23h0q-19.29-4.47-38.8-7.59a92.88,92.88,0,0,1-185.62,0q-19.49,3.14-38.79,7.59h0V350.8l-35.38,8.41a42.88,42.88,0,0,1-33.42,52c1.45,6.09,3.13,12.71,5.06,19.75H493.1c1.92-7,3.61-13.66,5.06-19.75A42.9,42.9,0,0,1,463.57,369.14Zm23.27,54.05H108.21l-1.29-4.49H488Z"/><path class="cls-3" d="M212.73,570.42q-3.54,3.69-10,3.7a14.65,14.65,0,0,1-3.62-.44,19.5,19.5,0,0,1-3.46-1.25,15.6,15.6,0,0,1-3.13-2.18,12.24,12.24,0,0,1-2.37-2.94l7.57-7.62a15.42,15.42,0,0,0,2.34,2.62,5.63,5.63,0,0,0,1.85,1.14q1.85-.54,1.85-4.25V533.57h12.9V559Q216.7,566.39,212.73,570.42Z"/><path class="cls-3" d="M266.69,562.22a20.17,20.17,0,0,1-5.47,6.73,23.28,23.28,0,0,1-7.86,4,25.65,25.65,0,0,1-9.23,1,30.72,30.72,0,0,1-9.33-1.12,24.17,24.17,0,0,1-8.14-3.94,20.07,20.07,0,0,1-5.66-6.64,17.12,17.12,0,0,1-1.85-9.15,18.43,18.43,0,0,1,2-9.09,20.75,20.75,0,0,1,5.64-6.75,23.89,23.89,0,0,1,8-4,26.67,26.67,0,0,1,9.28-1,28.44,28.44,0,0,1,9.23,1.19,24.51,24.51,0,0,1,8,4.06,19.67,19.67,0,0,1,5.53,6.67,17.8,17.8,0,0,1,1.82,9A18.88,18.88,0,0,1,266.69,562.22Zm-12.52-13a9.25,9.25,0,0,0-2.39-3,10.94,10.94,0,0,0-3.48-1.94,12.93,12.93,0,0,0-4.17-.68,16.64,16.64,0,0,0-4.16.52,10.44,10.44,0,0,0-3.65,1.69,8.79,8.79,0,0,0-2.58,3,9.19,9.19,0,0,0-1,4.44,8.39,8.39,0,0,0,1,4.16,9.39,9.39,0,0,0,2.58,3A11.09,11.09,0,0,0,240,562.2a14.69,14.69,0,0,0,4.16.6,15.56,15.56,0,0,0,4.11-.55,9.86,9.86,0,0,0,3.49-1.69,8.63,8.63,0,0,0,2.42-3,9.7,9.7,0,0,0,.92-4.38A8.78,8.78,0,0,0,254.17,549.24Z"/><path class="cls-3" d="M292.57,543.64v29.23H279.73V543.64h-8.6v-10h30v10Z"/><path class="cls-3" d="M335.27,566.55A10.76,10.76,0,0,1,332,570a15.35,15.35,0,0,1-4.66,2.09,20.13,20.13,0,0,1-5.39.71H303.57V533.62h15.51q6.81,0,10.18,2.59t3.37,8a11.12,11.12,0,0,1-.68,4,8.21,8.21,0,0,1-2.15,3.16q6.7,3.27,6.7,10.34A9.18,9.18,0,0,1,335.27,566.55Zm-15.64-22.31a6.69,6.69,0,0,0-3.16-.6v4.62a7.85,7.85,0,0,0,2.94-.41,1.77,1.77,0,0,0,1.3-1.82A1.91,1.91,0,0,0,319.63,544.24Zm-.22,13.55v-.06h-2.94v5.39h2.88a6,6,0,0,0,2.81-.65,2.21,2.21,0,0,0,1.27-2Q323.43,557.8,319.41,557.79Z"/><path class="cls-3" d="M337.86,572.81V533.62h12.9v39.19Z"/><path class="cls-3" d="M388.09,561.05a13.67,13.67,0,0,1-.92,5,10.14,10.14,0,0,1-3,4.11,15.51,15.51,0,0,1-5.47,2.77,28.78,28.78,0,0,1-8.33,1,44.82,44.82,0,0,1-10.83-1.25,23.07,23.07,0,0,1-8.44-3.87l6.48-10.18a11.4,11.4,0,0,0,3.24,1.88,30.44,30.44,0,0,0,3.73,1.2,26.18,26.18,0,0,0,3.43.65,20.94,20.94,0,0,0,2.39.19,5.75,5.75,0,0,0,1.77-.27,1.18,1.18,0,0,0,.79-1.36,1.58,1.58,0,0,0-.87-1.25,6.34,6.34,0,0,0-1.69-.71q-3.32-.81-6.42-1.91a21.76,21.76,0,0,1-5.47-2.77,13.57,13.57,0,0,1-3.81-4.08,11,11,0,0,1-1.44-5.77,11.36,11.36,0,0,1,1-4.71,10.42,10.42,0,0,1,3-3.89,15.2,15.2,0,0,1,5.31-2.67,27.31,27.31,0,0,1,7.81-1,38.71,38.71,0,0,1,8.27.9,38,38,0,0,1,8.17,2.8l-6.15,9.91a20.89,20.89,0,0,0-2.67-1.36,24.6,24.6,0,0,0-2.83-1,21.63,21.63,0,0,0-2.69-.6,16.22,16.22,0,0,0-2.15-.19c-2.29,0-3.43.6-3.43,1.8a1.4,1.4,0,0,0,.08.54,1,1,0,0,0,.41.44,4.23,4.23,0,0,0,1,.43c.47.15,1.13.33,2,.55,2.25.61,4.42,1.25,6.51,1.9a23.93,23.93,0,0,1,5.57,2.53,12.72,12.72,0,0,1,4,4A12,12,0,0,1,388,561Z"/><path class="cls-2" d="M265.67,212.52A89.15,89.15,0,0,1,296,207.78L112.73,27.2l149,175.09-97.37-94.71,83.13,103L129.58,98.51l99.9,122.37-85-78.41,62.62,73.6L37.33,51l129,151.66L107,144.91,204.47,263.3l-127-120.2L204.91,292.87A89.86,89.86,0,0,1,265.67,212.52Z"/></svg>